<svg xmlns="http://www.w3.org/2000/svg" xmlns:xlink="http://www.w3.org/1999/xlink" width="520" zoomAndPan="magnify" viewBox="0 0 390 232.499993" height="310" preserveAspectRatio="xMidYMid meet" version="1.0"><defs><g/></defs><g fill="#84cfff" fill-opacity="1"><g transform="translate(-1.305457, 192.8601)"><g><path d="M 43.578125 -155.625 C 55.878906 -155.625 64.734375 -152.582031 70.140625 -146.5 C 75.546875 -140.425781 78.25 -131.609375 78.25 -120.046875 L 78.25 -107.375 C 78.25 -98.78125 76.691406 -91.8125 73.578125 -86.46875 C 70.472656 -81.132812 65.582031 -77.429688 58.90625 -75.359375 C 66.019531 -73.285156 71.054688 -69.46875 74.015625 -63.90625 C 76.984375 -58.351562 78.46875 -51.351562 78.46875 -42.90625 L 78.46875 -18.671875 C 78.46875 -15.265625 78.613281 -11.96875 78.90625 -8.78125 C 79.207031 -5.59375 80.101562 -2.664062 81.59375 0 L 64.03125 0 C 62.988281 -2.21875 62.242188 -4.625 61.796875 -7.21875 C 61.359375 -9.8125 61.140625 -13.703125 61.140625 -18.890625 L 61.140625 -43.34375 C 61.140625 -52.09375 59.175781 -58.132812 55.25 -61.46875 C 51.320312 -64.800781 45.722656 -66.46875 38.453125 -66.46875 L 26.234375 -66.46875 L 26.234375 0 L 8.890625 0 L 8.890625 -155.625 Z M 39.125 -82.25 C 46.09375 -82.25 51.503906 -83.691406 55.359375 -86.578125 C 59.210938 -89.472656 61.140625 -95.144531 61.140625 -103.59375 L 61.140625 -118.5 C 61.140625 -125.601562 59.765625 -130.929688 57.015625 -134.484375 C 54.273438 -138.046875 49.644531 -139.828125 43.125 -139.828125 L 26.234375 -139.828125 L 26.234375 -82.25 Z M 39.125 -82.25 "/></g></g></g><g fill="#84cfff" fill-opacity="1"><g transform="translate(86.28044, 192.8601)"><g><path d="M 25.34375 -36.6875 C 25.34375 -29.570312 26.785156 -24.050781 29.671875 -20.125 C 32.566406 -16.195312 37.203125 -14.234375 43.578125 -14.234375 C 49.796875 -14.234375 54.347656 -16.195312 57.234375 -20.125 C 60.128906 -24.050781 61.578125 -29.570312 61.578125 -36.6875 L 61.578125 -155.625 L 77.8125 -155.625 L 77.8125 -37.578125 C 77.8125 -25.710938 74.992188 -16.1875 69.359375 -9 C 63.722656 -1.8125 54.90625 1.78125 42.90625 1.78125 C 31.050781 1.78125 22.304688 -1.8125 16.671875 -9 C 11.035156 -16.1875 8.21875 -25.710938 8.21875 -37.578125 L 8.21875 -155.625 L 25.34375 -155.625 Z M 25.34375 -36.6875 "/></g></g></g><g fill="#84cfff" fill-opacity="1"><g transform="translate(172.310227, 192.8601)"><g><path d="M 43.796875 -155.625 C 55.953125 -155.625 64.625 -152.769531 69.8125 -147.0625 C 75 -141.351562 77.59375 -132.71875 77.59375 -121.15625 L 77.59375 -113.828125 C 77.59375 -105.523438 76.253906 -98.816406 73.578125 -93.703125 C 70.910156 -88.585938 66.171875 -84.992188 59.359375 -82.921875 C 66.921875 -80.847656 72.289062 -76.921875 75.46875 -71.140625 C 78.65625 -65.359375 80.25 -58.171875 80.25 -49.578125 L 80.25 -36.453125 C 80.25 -24.742188 77.359375 -15.738281 71.578125 -9.4375 C 65.804688 -3.144531 56.84375 0 44.6875 0 L 8.890625 0 L 8.890625 -155.625 Z M 39.578125 -89.59375 C 46.535156 -89.59375 51.753906 -91 55.234375 -93.8125 C 58.722656 -96.632812 60.46875 -102.117188 60.46875 -110.265625 L 60.46875 -119.375 C 60.46875 -126.34375 59.171875 -131.492188 56.578125 -134.828125 C 53.984375 -138.160156 49.570312 -139.828125 43.34375 -139.828125 L 26.234375 -139.828125 L 26.234375 -89.59375 Z M 44.6875 -15.78125 C 56.988281 -15.78125 63.140625 -22.820312 63.140625 -36.90625 L 63.140625 -50.6875 C 63.140625 -59.425781 61.394531 -65.460938 57.90625 -68.796875 C 54.425781 -72.140625 48.90625 -73.8125 41.34375 -73.8125 L 26.234375 -73.8125 L 26.234375 -15.78125 Z M 44.6875 -15.78125 "/></g></g></g><g fill="#84cfff" fill-opacity="1"><g transform="translate(259.451515, 192.8601)"><g><path d="M 26.234375 -155.625 L 26.234375 0 L 8.890625 0 L 8.890625 -155.625 Z M 26.234375 -155.625 "/></g></g></g><g fill="#84cfff" fill-opacity="1"><g transform="translate(294.574792, 192.8601)"><g><path d="M 47.578125 -67.140625 L 21.5625 0 L 5.109375 0 L 36.453125 -80.25 L 7.109375 -155.625 L 25.125 -155.625 L 49.125 -93.375 L 73.359375 -155.625 L 89.59375 -155.625 L 60.46875 -80.25 L 91.59375 0 L 73.359375 0 Z M 47.578125 -67.140625 "/></g></g></g></svg>